Coordinates
nRows=10
nColumns=24

# SIMM Motion File Header:
name Coordinates
datacolumns 24
datarows 10
otherdata 1
range 1.55099999999999990000 1.56000000000000010000

Units are S.I. units (second, meters, Newtons, ...)
Angles are in degrees.

endheader
time	pelvis_tx	pelvis_ty	pelvis_tz	pelvis_tilt	pelvis_list	pelvis_rotation	hip_flexion_r	hip_adduction_r	hip_rotation_r	knee_angle_r	ankle_angle_r	subtalar_angle_r	mtp_angle_r	hip_flexion_l	hip_adduction_l	hip_rotation_l	knee_angle_l	ankle_angle_l	subtalar_angle_l	mtp_angle_l	lumbar_extension	lumbar_bending	lumbar_rotation
      1.55099999999999990000	      0.77681983735478932000	      0.81901384599820526000	     -0.23366252317834918000	     -4.69998776117667290000	     -2.70814541709197300000	      0.54166010364075556000	      5.56487546954288700000	      8.64030522984141140000	     -0.21065711448780738000	     -0.49784275059404742000	     -1.82999878448401580000	     -0.00000000000005179845	      0.00000000000005644667	     25.75894800121545100000	    -10.76106256238674600000	      0.56687466251260599000	    -59.00553899995603000000	      3.60740937792315330000	     -0.00000000000025288490	      0.00000000000159110389	      8.37708192592134180000	     -0.48751327100756314000	     12.27943254947717700000
      1.55200000000000000000	      0.77708882581263827000	      0.81898513409750273000	     -0.23360448935061739000	     -4.72122255086851080000	     -2.71443618262217080000	      0.51560343490963467000	      5.56081821070744200000	      8.65401519927448070000	     -0.22030065929895451000	     -0.50302898209739011000	     -1.80403009455706420000	     -0.00000000000005214132	      0.00000000000005700390	     25.85473282428109000000	    -10.74640391405697100000	      0.63523530086828495000	    -58.86560978508814700000	      3.74854615571621300000	     -0.00000000000025319054	      0.00000000000159329362	      8.39086394557013900000	     -0.48329732147001564000	     12.30902526342600500000
      1.55299999999999990000	      0.77735742431799615000	      0.81895669973104879000	     -0.23354734840462554000	     -4.74241113393487180000	     -2.72068218816004850000	      0.48951134636231552000	      5.55660569418670840000	      8.66758602518510380000	     -0.22972124242506314000	     -0.50799389171969767000	     -1.77823433290102790000	     -0.00000000000005249083	      0.00000000000005754613	     25.94969000321182100000	    -10.73142119727596500000	      0.70414466860273162000	    -58.72333782422354900000	      3.88776019665656000000	     -0.00000000000025349646	      0.00000000000159548278	      8.40454209350372490000	     -0.47902055090869639000	     12.33870184758064800000
      1.55400000000000000000	      0.77762563588810663000	      0.81892855395409292000	     -0.23349111934062436000	     -4.76354199151296690000	     -2.72687339099042170000	      0.46339856876193186000	      5.55222520983943290000	      8.68100767995243670000	     -0.23892458677408265000	     -0.51273758273775294000	     -1.75261392923627570000	     -0.00000000000005284415	      0.00000000000005806924	     26.04381062593662900000	    -10.71610742700828600000	      0.77358511958853604000	    -58.57874201463025100000	      4.02504014439369760000	     -0.00000000000025380084	      0.00000000000159766946	      8.41810142325700460000	     -0.47469629566203514000	     12.36844477765920700000
      1.55499999999999990000	      0.77789346346346322000	      0.81890070741491761000	     -0.23343582063157284000	     -4.78460373082251420000	     -2.73299972211914800000	      0.43727982245280494000	      5.54766441239427530000	      8.69427017383470440000	     -0.24791679914278827000	     -0.51726051666865991000	     -1.72717119966610390000	     -0.00000000000005321980	      0.00000000000005858847	     26.13708629902635400000	    -10.70045569441983300000	      0.84353836190182596000	    -58.43184240793865300000	      4.16037629683746960000	     -0.00000000000025410488	      0.00000000000159985453	      8.43152715022214670000	     -0.47033803956270487000	     12.39823635326417100000
      1.55600000000000000000	      0.77816090991954767000	      0.81887317033995677000	     -0.23338147020839278000	     -4.80558509865799980000	     -2.73905109428319850000	      0.41116979766922856000	      5.54291133487281940000	      8.70736356152565880000	     -0.25670435257303237000	     -0.52156351160631598000	     -1.70190834372676210000	     -0.00000000000005360015	      0.00000000000005909640	     26.22950915785672900000	    -10.68445917398695300000	      0.91398546413177606000	    -58.28266020454301400000	      4.29376058859750740000	     -0.00000000000025440903	      0.00000000000160203937	      8.44480467108527750000	     -0.46595939527590863000	     12.42805869396643800000
      1.55699999999999990000	      0.77842797807845521000	      0.81884595251924153000	     -0.23332808544517611000	     -4.82647499488776610000	     -2.74501740994772490000	      0.38508313485729362000	      5.53795440199053960000	      8.72027794877648790000	     -0.26529406870774674000	     -0.52564774058564079000	     -1.67682744144067650000	     -0.00000000000005398612	      0.00000000000005961765	     26.32107187675726900000	    -10.66811113068397000000	      0.98490686171312269000	    -58.13121774802238000000	      4.42518657342307180000	     -0.00000000000025471093	      0.00000000000160422194	      8.45791958322520190000	     -0.46157408558285984000	     12.45789373538290000000
      1.55800000000000010000	      0.77869467072040643000	      0.81881906329217269000	     -0.23327568314434652000	     -4.84726248595703350000	     -2.75088856929252130000	      0.35903440501123918000	      5.53278244352885910000	      8.73300349908292440000	     -0.27369310014652715000	     -0.52951472996713045000	     -1.65193045041542660000	     -0.00000000000005437227	      0.00000000000006011528	     26.41176767913975400000	    -10.65140492724800900000	      1.05628236328987190000	    -57.97753851956598200000	      4.55464940661674160000	     -0.00000000000025501228	      0.00000000000160640405	      8.47085770407015560000	     -0.45719592461284908000	     12.48772322527358500000
      1.55899999999999990000	      0.77896099059513535000	      0.81879251153404686000	     -0.23322427952206040000	     -4.86793681821060980000	     -2.75665447824989450000	      0.33303809012741353000	      5.52738470727701170000	      8.74553044045350350000	     -0.28190891257061085000	     -0.53316635737429829000	     -1.62721920421620900000	     -0.00000000000005475771	      0.00000000000006065087	     26.50159034720243400000	    -10.63433403149508300000	      1.12809115763873490000	    -57.82164713153472500000	      4.68214582576368170000	     -0.00000000000025531343	      0.00000000000160858447	      8.48360509017605930000	     -0.45283879917396752000	     12.51752872120188300000
      1.56000000000000010000	      0.77922694043286955000	      0.81876630564509023000	     -0.23317389019541868000	     -4.88848743028574790000	     -2.76230505663679880000	      0.30710856418080407000	      5.52175086998124960000	      8.75784907203789940000	     -0.28994926522970932000	     -0.53660484782201090000	     -1.60269540975392630000	     -0.00000000000005514101	      0.00000000000006118941	     26.59053422946891100000	    -10.61689202332585500000	      1.20031182336802830000	    -57.66356931644220700000	      4.80767412274173010000	     -0.00000000000025561388	      0.00000000000161076358	      8.49614805501916950000	     -0.44851665100196847000	     12.54729159638582600000
